<svg width="900" height="620" viewBox="0 0 900 620" fill="none" xmlns="http://www.w3.org/2000/svg">
  <defs>
    <radialGradient id="bg" cx="50%" cy="42%" r="68%">
      <stop offset="0%" stop-color="#3B82F6"/>
      <stop offset="45%" stop-color="#5B21B6"/>
      <stop offset="100%" stop-color="#050816"/>
    </radialGradient>
    <linearGradient id="card" x1="180" y1="120" x2="720" y2="500">
      <stop stop-color="#1E3A8A"/>
      <stop offset="0.55" stop-color="#312E81"/>
      <stop offset="1" stop-color="#111827"/>
    </linearGradient>
    <linearGradient id="cyan" x1="0" y1="0" x2="1" y2="1">
      <stop stop-color="#67E8F9"/>
      <stop offset="1" stop-color="#22D3EE"/>
    </linearGradient>
    <linearGradient id="gold" x1="0" y1="0" x2="1" y2="1">
      <stop stop-color="#FDE68A"/>
      <stop offset="1" stop-color="#F59E0B"/>
    </linearGradient>
    <filter id="glow" x="-40%" y="-40%" width="180%" height="180%">
      <feGaussianBlur stdDeviation="14" result="blur"/>
      <feColorMatrix in="blur" type="matrix" values="0 0 0 0 0.25 0 0 0 0 0.85 0 0 0 0 1 0 0 0 0.65 0"/>
      <feBlend in="SourceGraphic"/>
    </filter>
    <filter id="shadow" x="-30%" y="-30%" width="160%" height="160%">
      <feDropShadow dx="0" dy="28" stdDeviation="24" flood-color="#000000" flood-opacity="0.35"/>
    </filter>
  </defs>

  <rect width="900" height="620" rx="46" fill="url(#bg)"/>

  <circle cx="160" cy="130" r="5" fill="#E0F2FE"/>
  <circle cx="760" cy="110" r="4" fill="#FDE68A"/>
  <circle cx="720" cy="510" r="6" fill="#67E8F9"/>
  <circle cx="110" cy="470" r="4" fill="#C4B5FD"/>
  <circle cx="820" cy="330" r="3" fill="#E0E7FF"/>
  <circle cx="250" cy="80" r="3" fill="#F0FDFA"/>

  <path d="M120 395C250 245 382 522 540 330C655 190 724 290 800 212" stroke="#67E8F9" stroke-width="5" stroke-linecap="round" opacity="0.55" filter="url(#glow)"/>
  <path d="M96 430C245 290 388 560 566 360C690 220 750 315 825 250" stroke="#A78BFA" stroke-width="3" stroke-linecap="round" opacity="0.45"/>

  <g filter="url(#shadow)">
    <rect x="205" y="110" width="490" height="355" rx="34" fill="url(#card)" stroke="#67E8F9" stroke-opacity="0.35" stroke-width="3"/>
    <rect x="240" y="150" width="190" height="30" rx="15" fill="#67E8F9" opacity="0.95"/>
    <rect x="240" y="204" width="390" height="22" rx="11" fill="#E0E7FF" opacity="0.18"/>
    <rect x="240" y="240" width="320" height="22" rx="11" fill="#E0E7FF" opacity="0.13"/>

    <rect x="245" y="304" width="110" height="92" rx="22" fill="#111827" stroke="#A78BFA" stroke-opacity="0.5"/>
    <rect x="395" y="304" width="110" height="92" rx="22" fill="#111827" stroke="#22D3EE" stroke-opacity="0.5"/>
    <rect x="545" y="304" width="110" height="92" rx="22" fill="#111827" stroke="#FDE68A" stroke-opacity="0.5"/>

    <circle cx="300" cy="338" r="18" fill="url(#cyan)" filter="url(#glow)"/>
    <path d="M285 368H318" stroke="#E0F2FE" stroke-width="7" stroke-linecap="round"/>
    <path d="M434 350L451 327L469 350" stroke="#FDE68A" stroke-width="10" stroke-linecap="round" stroke-linejoin="round"/>
    <path d="M574 352C590 328 611 328 627 352C616 372 585 372 574 352Z" fill="#A78BFA"/>
  </g>

  <g filter="url(#shadow)">
    <circle cx="455" cy="250" r="70" fill="#38BDF8"/>
    <path d="M410 255C440 222 492 222 520 255C505 295 426 295 410 255Z" fill="#E0F2FE"/>
    <circle cx="430" cy="246" r="7" fill="#0F172A"/>
    <circle cx="482" cy="246" r="7" fill="#0F172A"/>
    <path d="M442 267C452 277 469 277 480 267" stroke="#0F172A" stroke-width="6" stroke-linecap="round"/>
    <path d="M378 232C332 216 320 260 360 276" stroke="#38BDF8" stroke-width="28" stroke-linecap="round"/>
    <path d="M532 232C580 214 592 260 550 278" stroke="#38BDF8" stroke-width="28" stroke-linecap="round"/>
  </g>

  <g filter="url(#glow)">
    <path d="M700 155L715 187L750 191L724 215L731 250L700 232L669 250L676 215L650 191L685 187L700 155Z" fill="url(#gold)"/>
    <circle cx="190" cy="215" r="18" fill="#A78BFA"/>
    <circle cx="735" cy="405" r="28" fill="#22D3EE" opacity="0.8"/>
  </g>

  <text x="450" y="525" text-anchor="middle" font-family="Inter, Arial, sans-serif" font-size="34" font-weight="900" fill="#F8FAFC">Student Mission Dashboard</text>
  <text x="450" y="565" text-anchor="middle" font-family="Inter, Arial, sans-serif" font-size="19" font-weight="700" fill="#C7D2FE">quests • focus • streaks • learning worlds</text>
</svg>
