<svg xmlns="http://www.w3.org/2000/svg" viewBox="0 0 640 640" role="img" aria-label="Parent dashboard illustration"><defs><radialGradient id="g" cx="36%" cy="28%" r="72%"><stop offset="0" stop-color="#f0abfc"/><stop offset=".46" stop-color="#8b5cf6"/><stop offset="1" stop-color="#05071d" stop-opacity="0"/></radialGradient><linearGradient id="p" x1="140" y1="120" x2="500" y2="520"><stop stop-color="#f472b6"/><stop offset=".55" stop-color="#a78bfa"/><stop offset="1" stop-color="#22d3ee"/></linearGradient><filter id="glow"><feGaussianBlur stdDeviation="10" result="b"/><feMerge><feMergeNode in="b"/><feMergeNode in="SourceGraphic"/></feMerge></filter></defs><circle cx="320" cy="320" r="285" fill="url(#g)" opacity=".72"/><g filter="url(#glow)"><path d="M318 488s-178-96-178-224c0-70 52-118 113-118 37 0 63 18 65 21 3-3 30-21 66-21 62 0 116 48 116 118 0 128-182 224-182 224z" fill="url(#p)" stroke="#fdf2f8" stroke-width="10"/><circle cx="268" cy="278" r="46" fill="#fff" opacity=".9"/><circle cx="374" cy="278" r="46" fill="#fff" opacity=".9"/><path d="M232 372c48 38 128 38 176 0" fill="none" stroke="#fff" stroke-width="20" stroke-linecap="round" opacity=".92"/><path d="M142 132l17 36 39 5-28 27 7 38-35-18-34 18 7-38-28-27 39-5zM492 404l12 27 30 4-22 21 6 30-26-14-27 14 6-30-22-21 30-4z" fill="#facc15"/></g></svg>