<svg xmlns="http://www.w3.org/2000/svg" viewBox="0 0 640 640" role="img" aria-label="Student dashboard illustration"><defs><radialGradient id="g" cx="30%" cy="25%" r="70%"><stop offset="0" stop-color="#6ee7ff"/><stop offset=".45" stop-color="#7c3aed"/><stop offset="1" stop-color="#090b2a" stop-opacity="0"/></radialGradient><linearGradient id="p" x1="90" y1="90" x2="550" y2="550"><stop stop-color="#a78bfa"/><stop offset=".55" stop-color="#22d3ee"/><stop offset="1" stop-color="#facc15"/></linearGradient><filter id="glow"><feGaussianBlur stdDeviation="10" result="b"/><feMerge><feMergeNode in="b"/><feMergeNode in="SourceGraphic"/></feMerge></filter></defs><circle cx="320" cy="320" r="285" fill="url(#g)" opacity=".75"/><g filter="url(#glow)"><path d="M180 194c0-26 21-47 47-47h186c26 0 47 21 47 47v236c0 26-21 47-47 47H227c-26 0-47-21-47-47z" fill="#11183f" stroke="#67e8f9" stroke-width="8"/><path d="M222 216h196v58H222z" rx="18" fill="#7c3aed" opacity=".9"/><circle cx="262" cy="345" r="48" fill="#22d3ee"/><path d="M342 328h78M342 366h62M232 430h176" stroke="#f8fafc" stroke-width="16" stroke-linecap="round"/><path d="M455 120l20 42 45 6-32 31 8 44-41-21-40 21 8-44-33-31 45-6z" fill="#facc15"/><path d="M154 466c52-18 88-8 112 30" fill="none" stroke="url(#p)" stroke-width="18" stroke-linecap="round"/></g></svg>